<svg xmlns="http://www.w3.org/2000/svg" xmlns:xlink="http://www.w3.org/1999/xlink" preserveAspectRatio="xMidYMid" width="85" height="85" viewBox="0 0 85 85">
  <defs>
    <style>
      .cls-1 {
        fill: #3CDE00;
        fill-rule: evenodd;
      }
    </style>
  </defs>
  <path d="M42.500,85.000 C19.028,85.000 0.000,65.972 0.000,42.500 C0.000,19.028 19.028,-0.000 42.500,-0.000 C65.972,-0.000 85.000,19.028 85.000,42.500 C85.000,65.972 65.972,85.000 42.500,85.000 ZM42.500,6.000 C22.342,6.000 6.000,22.342 6.000,42.500 C6.000,62.658 22.342,79.000 42.500,79.000 C62.658,79.000 79.000,62.658 79.000,42.500 C79.000,22.342 62.658,6.000 42.500,6.000 ZM45.000,21.000 L52.000,21.000 L52.000,64.000 L45.000,64.000 L45.000,21.000 ZM33.000,21.000 L40.000,21.000 L40.000,64.000 L33.000,64.000 L33.000,21.000 Z" class="cls-1"/>
</svg>
